HIERARCHY
ROOT hip
{
	OFFSET 0.000000 0.000000 0.000000
	CHANNELS 6 Xposition Yposition Zposition Zrotation Yrotation Xrotation 
	JOINT lhipjoint
	{
		OFFSET 0.000000 0.000000 0.000000
		CHANNELS 3 Zrotation Yrotation Xrotation
		JOINT lfemur
		{
			OFFSET 1.363060 -1.794630 0.839290
			CHANNELS 3 Zrotation Yrotation Xrotation
			JOINT ltibia
			{
				OFFSET 2.448110 -6.726130 0.000000
				CHANNELS 3 Zrotation Yrotation Xrotation
				JOINT lfoot
				{
					OFFSET 2.562200 -7.039590 0.000000
					CHANNELS 3 Zrotation Yrotation Xrotation
					JOINT ltoes
					{
						OFFSET 0.157640 -0.433110 2.322550
						CHANNELS 3 Zrotation Yrotation Xrotation
						End Site
						{
							OFFSET 0.000000 0.000000 0.000000
						}
					}
				}
			}
		}
	}
	JOINT rhipjoint
	{
		OFFSET 0.000000 0.000000 0.000000
		CHANNELS 3 Zrotation Yrotation Xrotation
		JOINT rfemur
		{
			OFFSET -1.305520 -1.794630 0.839290
			CHANNELS 3 Zrotation Yrotation Xrotation
			JOINT rtibia
			{
				OFFSET -2.542530 -6.985550 0.000000
				CHANNELS 3 Zrotation Yrotation Xrotation
				JOINT rfoot
				{
					OFFSET -2.568260 -7.056230 0.000000
					CHANNELS 3 Zrotation Yrotation Xrotation
					JOINT rtoes
					{
						OFFSET -0.164730 -0.452590 2.363150
						CHANNELS 3 Zrotation Yrotation Xrotation
						End Site
						{
							OFFSET 0.000000 0.000000 0.000000
						}
					}
				}
			}
		}
	}
	JOINT lowerback
	{
		OFFSET 0.000000 0.000000 0.000000
		CHANNELS 3 Zrotation Yrotation Xrotation
		JOINT upperback
		{
			OFFSET 0.028270 2.035590 -0.193380
			CHANNELS 3 Zrotation Yrotation Xrotation
			JOINT thorax
			{
				OFFSET 0.056720 2.048850 -0.042750
				CHANNELS 3 Zrotation Yrotation Xrotation
				JOINT lowerneck
				{
					OFFSET 0.000000 0.000000 0.000000
					CHANNELS 3 Zrotation Yrotation Xrotation
					JOINT upperneck
					{
						OFFSET -0.054170 1.746240 0.172020
						CHANNELS 3 Zrotation Yrotation Xrotation
						JOINT head
						{
							OFFSET 0.104070 1.761360 -0.123970
							CHANNELS 3 Zrotation Yrotation Xrotation
							End Site
							{
								OFFSET 0.000000 0.000000 0.000000
							}
						}
					}
				}
				JOINT lclavicle
				{
					OFFSET 0.000000 0.000000 0.000000
					CHANNELS 3 Zrotation Yrotation Xrotation
					JOINT lhumerus
					{
						OFFSET 3.362410 1.200890 -0.311210
						CHANNELS 3 Zrotation Yrotation Xrotation
						JOINT lradius
						{
							OFFSET 4.983000 -0.000000 -0.000000
							CHANNELS 3 Zrotation Yrotation Xrotation
							JOINT lwrist
							{
								OFFSET 3.483560 -0.000000 -0.000000
								CHANNELS 3 Zrotation Yrotation Xrotation
								JOINT lhand
								{
									OFFSET 0.000000 0.000000 0.000000
									CHANNELS 3 Zrotation Yrotation Xrotation
									JOINT lfingers
									{
										OFFSET 0.715260 -0.000000 -0.000000
										CHANNELS 3 Zrotation Yrotation Xrotation
										End Site
										{
											OFFSET 0.000000 0.000000 0.000000
										}
									}
								}
								JOINT lthumb
								{
									OFFSET 0.000000 0.000000 0.000000
									CHANNELS 3 Zrotation Yrotation Xrotation
									End Site
									{
										OFFSET 0.000000 0.000000 0.000000
									}
								}
							}
						}
					}
				}
				JOINT rclavicle
				{
					OFFSET 0.000000 0.000000 0.000000
					CHANNELS 3 Zrotation Yrotation Xrotation
					JOINT rhumerus
					{
						OFFSET -3.136600 1.374050 -0.404650
						CHANNELS 3 Zrotation Yrotation Xrotation
						JOINT rradius
						{
							OFFSET -5.241900 -0.000000 -0.000000
							CHANNELS 3 Zrotation Yrotation Xrotation
							JOINT rwrist
							{
								OFFSET -3.444170 -0.000000 -0.000000
								CHANNELS 3 Zrotation Yrotation Xrotation
								JOINT rhand
								{
									OFFSET 0.000000 0.000000 0.000000
									CHANNELS 3 Zrotation Yrotation Xrotation
									JOINT rfingers
									{
										OFFSET -0.622530 -0.000000 -0.000000
										CHANNELS 3 Zrotation Yrotation Xrotation
										End Site
										{
											OFFSET 0.000000 0.000000 0.000000
										}
									}
								}
								JOINT rthumb
								{
									OFFSET 0.000000 0.000000 0.000000
									CHANNELS 3 Zrotation Yrotation Xrotation
									End Site
									{
										OFFSET 0.000000 0.000000 0.000000
									}
								}
							}
						}
					}
				}
			}
		}
	}
}
MOTION
Frames: 7
Frame Time: 0.04
-0.464900 17.593645 17.547890 -178.099945 9.890096 -179.869601 4.327286 3.565862 0.196782 -21.317281 3.922431 -12.847401 3.318935 10.238073 33.904388 2.531705 -9.193904 4.005441 0.430400 -4.210000 -11.668300 -7.270707 -3.739863 -0.983663 31.221274 9.214426 -3.778981 -4.109726 -8.647973 28.485991 -0.608810 4.631788 -7.137741 -0.305100 3.551000 -9.816800 3.732514 -0.317251 3.880576 1.112142 -0.497620 -3.696042 0.177206 0.109378 -2.316738 2.649277 6.825049 3.453728 2.090688 8.899270 8.547157 -5.200800 4.571000 -5.325900 4.743784 -9.498814 4.667439 -83.056700 10.128058 38.218815 14.285813 -34.382508 -3.974814 0.832846 3.065395 -19.557244 22.601152 -9.397345 -4.676600 -7.125000 0.000000 0.000000 -4.431400 16.765600 2.973700 1.944392 10.717650 6.250135 72.687424 -1.378716 47.317922 -34.113240 43.646410 -9.409017 -0.470509 -4.332621 -8.594050 -24.445880 10.691636 -6.625400 7.125000 0.000000 0.000000 2.797800 -13.160000 2.089900 
-0.492952 17.591226 17.539377 -178.056663 9.728037 -179.866098 4.318171 3.586117 0.163378 -21.483583 4.024143 -11.952072 3.058218 9.816472 32.530892 2.537560 -9.166633 3.335564 0.463500 -4.366800 -12.111100 -7.279253 -3.779068 -0.897806 31.091818 9.276134 -4.602134 -4.305953 -9.027098 29.698982 -0.616060 4.736214 -7.136446 -0.380600 3.962200 -10.970400 3.698319 -0.473762 3.863444 1.147891 -0.709122 -3.703329 0.238969 0.013728 -2.328698 2.794656 6.890173 3.459539 2.077397 9.013765 8.569919 -5.273800 4.626900 -5.274900 4.749858 -9.450722 4.674221 -82.775746 9.523181 39.070151 14.985177 -34.965058 -4.154228 0.800815 3.117355 -20.037131 22.920695 -9.419962 -4.784500 -7.125000 0.000000 0.000000 -4.217000 16.647900 2.839900 1.927809 10.721466 6.228876 72.845548 -1.528478 47.331780 -33.080035 42.883585 -8.970616 -0.464459 -4.322047 -8.637904 -24.401045 10.409758 -6.488900 7.125000 0.000000 0.000000 2.805200 -13.487000 2.076100 
-0.521682 17.593935 17.533090 -178.018939 9.562714 -179.859966 4.305408 3.602933 0.134032 -21.627082 4.075088 -11.137722 2.821221 9.424306 31.270225 2.514756 -9.018342 2.990350 0.482200 -4.453100 -12.354900 -7.288186 -3.819686 -0.801777 30.945364 9.357897 -5.514836 -4.528533 -9.438813 31.033473 -0.618217 4.814093 -7.068583 -0.486900 4.474300 -12.415100 3.630721 -0.626688 3.877669 1.188489 -0.914914 -3.715078 0.371659 -0.074078 -2.378447 2.874829 6.954782 3.477545 2.071694 9.109959 8.585270 -5.327200 4.676100 -5.231500 4.753270 -9.421446 4.679308 -82.515374 8.923710 39.953932 15.762625 -35.626291 -4.366791 0.770715 3.176205 -20.478677 23.345568 -9.451878 -4.927700 -7.125000 0.000000 0.000000 -3.932600 16.496700 2.660400 1.913089 10.729043 6.205771 72.951637 -1.715573 47.321198 -32.020482 42.066427 -8.529990 -0.465361 -4.303505 -8.622009 -24.313018 10.143037 -6.340800 7.125000 0.000000 0.000000 2.844300 -13.814500 2.085500 
-0.551089 17.600609 17.527769 -177.997300 9.407631 -179.850624 4.294785 3.616762 0.103002 -21.771099 4.085955 -10.362295 2.600837 9.050978 30.087153 2.482875 -8.852674 2.863439 0.484800 -4.464800 -12.388200 -7.291662 -3.858907 -0.698419 30.754935 9.471255 -6.505244 -4.776224 -9.877903 32.473375 -0.611142 4.848105 -6.866910 -0.587000 4.905400 -13.638900 3.556660 -0.764471 3.890006 1.220991 -1.100748 -3.722411 0.434677 -0.155619 -2.396668 2.992359 6.992011 3.443173 2.080719 9.178507 8.608192 -5.372700 4.709800 -5.173800 4.736665 -9.377881 4.688587 -82.133678 8.328297 40.924345 16.691246 -36.371182 -4.620366 0.725475 3.236133 -20.951277 23.792429 -9.401998 -5.051600 -7.125000 0.000000 0.000000 -3.622500 16.422400 2.455500 1.889995 10.732908 6.175383 73.116209 -1.864408 47.295903 -30.885414 41.206585 -8.088358 -0.479573 -4.286120 -8.571424 -24.332225 9.944733 -6.253200 7.125000 0.000000 0.000000 2.823000 -14.049500 2.055800 
-0.580109 17.611637 17.524867 -177.976638 9.232549 -179.846957 4.283839 3.627876 0.072363 -21.897144 4.025055 -9.602610 2.391893 8.687836 28.948581 2.439073 -8.645018 2.878619 0.457600 -4.339600 -12.034000 -7.291184 -3.900294 -0.583099 30.545922 9.602382 -7.598516 -5.043624 -10.332374 33.983865 -0.587348 4.784111 -6.421711 -0.696200 5.333800 -14.863200 3.464352 -0.900429 3.942576 1.252139 -1.283122 -3.731558 0.501143 -0.233249 -2.439776 3.075623 7.041096 3.396124 2.133004 9.241527 8.625714 -5.382900 4.738200 -5.116700 4.710188 -9.351051 4.696924 -81.716394 7.715630 41.844186 17.664228 -37.136122 -4.897743 0.681855 3.291990 -21.401580 24.251316 -9.389658 -5.193900 -7.125000 0.000000 0.000000 -3.305800 16.307900 2.248300 1.856384 10.736095 6.139434 73.306387 -2.039024 47.239541 -29.736780 40.328449 -7.664895 -0.503962 -4.267751 -8.519628 -24.398358 9.807939 -6.202300 7.125000 0.000000 0.000000 2.780500 -14.213100 2.015100 
-0.609613 17.627114 17.523803 -177.958414 9.064903 -179.841340 4.271142 3.638295 0.039809 -22.008700 3.958794 -8.867464 2.192228 8.331015 27.838708 2.395273 -8.447233 2.953292 0.436500 -4.239800 -11.752200 -7.286056 -3.945260 -0.455616 30.310645 9.731718 -8.814095 -5.328694 -10.796753 35.548270 -0.542862 4.567195 -5.649925 -0.807300 5.734000 -16.014500 3.373299 -1.026915 4.014506 1.282592 -1.452391 -3.740685 0.572692 -0.302532 -2.498511 3.120980 7.085823 3.365222 2.189773 9.290459 8.627514 -5.377000 4.758700 -5.077500 4.681882 -9.335071 4.708250 -81.332521 7.103422 42.604660 18.685311 -37.940545 -5.205550 0.641755 3.344793 -21.628786 24.725587 -9.369649 -5.342800 -7.125000 0.000000 0.000000 -2.973100 16.193600 2.028700 1.803768 10.740038 6.098955 73.561256 -2.203225 47.002343 -28.460274 39.357023 -7.224117 -0.553143 -4.241019 -8.266090 -24.493973 9.768182 -6.194800 7.125000 0.000000 0.000000 2.729900 -14.276600 1.974700 
-0.638729 17.645687 17.525061 -177.925139 8.907267 -179.825130 4.256078 3.646819 0.007156 -22.094472 3.860381 -8.177955 2.005365 7.987899 26.777509 2.347587 -8.236182 3.088800 0.392500 -4.022700 -11.140600 -7.278912 -3.990299 -0.315640 30.075308 9.910313 -10.104221 -5.631910 -11.268449 37.164389 -0.489209 4.247163 -4.626515 -0.864000 5.927000 -16.572700 3.282709 -1.140651 4.107801 1.314167 -1.603610 -3.752235 0.648501 -0.361684 -2.585774 3.170221 7.116353 3.341835 2.246207 9.319868 8.622360 -5.372000 4.769300 -5.040300 4.656395 -9.330782 4.719755 -80.930588 6.517502 43.334056 19.778855 -38.791294 -5.538504 0.592375 3.397504 -21.864143 25.085010 -9.310815 -5.449000 -7.125000 0.000000 0.000000 -2.713000 16.132100 1.854500 1.734762 10.755821 6.049367 73.931803 -2.359729 46.484799 -27.023010 38.268509 -6.754301 -0.637907 -4.197852 -7.639108 -24.534624 9.862473 -6.217900 7.125000 0.000000 0.000000 2.729600 -14.220100 1.977700 
